<?xml version="1.0" encoding="utf-8"?>
<!-- Generator: Adobe Illustrator 25.4.1, SVG Export Plug-In . SVG Version: 6.00 Build 0)  -->
<svg version="1.1" xmlns="http://www.w3.org/2000/svg" xmlns:xlink="http://www.w3.org/1999/xlink" x="0px" y="0px"
	 viewBox="0 0 597 82" style="enable-background:new 0 0 597 82;" xml:space="preserve">
<style type="text/css">
	.st0{fill:#F09817;}
	.st1{fill:#066CB5;}
</style>
<g id="Capa_3">
	<path class="st0" d="M55.9,32.4c-0.7-0.2-1.4-0.2-2.1-0.2c-1.3,0-2.5,0.3-3.6,0.7c-3.6,1.4-6.1,4.9-6.1,9.1s2.5,7.6,6.1,9.1
		c1.1,0.4,2.3,0.7,3.6,0.7c0.7,0,1.4-0.1,2.1-0.2c4.4-1,7.6-4.9,7.6-9.5C63.5,37.2,60.3,33.3,55.9,32.4"/>
	<path class="st1" d="M48.8,54.5c-0.4-0.2-0.9-0.4-1.3-0.6c-3.3,3.5-7.8,5.4-12.6,5.4c-9.6,0-17.4-7.8-17.4-17.4
		c0-9.6,7.8-17.4,17.4-17.4c4.8,0,9.3,2,12.6,5.4c0.4-0.2,0.8-0.4,1.3-0.6c1.6-0.6,3.3-1,5-1c0.1,0,0.2,0,0.2,0
		c-4.4-6.3-11.5-9.9-19.2-9.9c-12.9,0-23.5,10.5-23.5,23.5c0,12.9,10.5,23.5,23.5,23.5c7.7,0,14.8-3.7,19.2-9.9c-0.1,0-0.2,0-0.2,0
		C52.1,55.4,50.4,55.1,48.8,54.5"/>
	<path class="st1" d="M78.4,41.9L78.4,41.9c0-5.4,4-9.8,9.8-9.8c3.5,0,5.7,1.2,7.4,2.9l-2.6,3c-1.5-1.3-2.9-2.1-4.8-2.1
		c-3.2,0-5.5,2.6-5.5,5.9v0.1c0,3.2,2.2,5.9,5.5,5.9c2.1,0,3.5-0.9,4.9-2.2l2.6,2.7c-1.9,2.1-4.1,3.4-7.7,3.4
		C82.5,51.6,78.4,47.3,78.4,41.9"/>
	<path class="st1" d="M115.5,41.9L115.5,41.9c0-3.3-2.4-6-5.7-6c-3.3,0-5.6,2.6-5.6,5.9v0.1c0,3.2,2.4,5.9,5.7,5.9
		C113.1,47.8,115.5,45.2,115.5,41.9 M99.8,41.9L99.8,41.9c0-5.4,4.2-9.8,10-9.8c5.8,0,10,4.3,10,9.7v0.1c0,5.3-4.2,9.7-10,9.7
		C104,51.6,99.8,47.3,99.8,41.9"/>
	<path class="st1" d="M124.5,48.6l2.4-2.9c1.7,1.4,3.5,2.3,5.6,2.3c1.7,0,2.7-0.7,2.7-1.8v-0.1c0-1-0.6-1.6-3.8-2.4
		c-3.8-1-6.2-2-6.2-5.7v-0.1c0-3.4,2.7-5.7,6.6-5.7c2.7,0,5.1,0.9,7,2.4l-2.1,3.1c-1.7-1.2-3.3-1.9-4.9-1.9s-2.4,0.7-2.4,1.6v0.1
		c0,1.2,0.8,1.6,4.1,2.5c3.8,1,6,2.4,6,5.6v0.1c0,3.7-2.8,5.8-6.9,5.8C129.6,51.6,126.8,50.6,124.5,48.6"/>
	<polygon class="st1" points="150.1,36.3 144.4,36.3 144.4,32.5 160,32.5 160,36.3 154.2,36.3 154.2,51.3 150.1,51.3 	"/>
	<path class="st1" d="M173.7,43.5l-2.5-6.1l-2.5,6.1H173.7z M169.4,32.4h3.8l8.1,18.9h-4.3l-1.7-4.2h-8l-1.7,4.2h-4.2L169.4,32.4z"
		/>
	<path class="st1" d="M202.9,47.6c3.4,0,5.7-2.3,5.7-5.6v-0.1c0-3.3-2.3-5.7-5.7-5.7h-3.2v11.3H202.9z M195.6,32.5h7.3
		c5.9,0,10,4.1,10,9.4v0.1c0,5.3-4.1,9.4-10,9.4h-7.3V32.5z"/>
	<polygon class="st1" points="218,32.5 232.1,32.5 232.1,36.2 222.1,36.2 222.1,40 230.9,40 230.9,43.7 222.1,43.7 222.1,47.6 
		232.3,47.6 232.3,51.3 218,51.3 	"/>
	<polygon class="st1" points="239.1,32.5 243.2,32.5 243.2,47.5 252.6,47.5 252.6,51.3 239.1,51.3 	"/>
	<path class="st1" d="M267.3,48.6l2.4-2.9c1.7,1.4,3.5,2.3,5.6,2.3c1.7,0,2.7-0.7,2.7-1.8v-0.1c0-1-0.6-1.6-3.8-2.4
		c-3.8-1-6.2-2-6.2-5.7v-0.1c0-3.4,2.7-5.7,6.6-5.7c2.7,0,5.1,0.9,7,2.4l-2.1,3.1c-1.7-1.2-3.3-1.9-4.9-1.9c-1.6,0-2.4,0.7-2.4,1.6
		v0.1c0,1.2,0.8,1.6,4.1,2.5c3.8,1,6,2.4,6,5.6v0.1c0,3.7-2.8,5.8-6.9,5.8C272.4,51.6,269.5,50.6,267.3,48.6"/>
	<path class="st1" d="M302.4,41.9L302.4,41.9c0-3.3-2.4-6-5.7-6c-3.3,0-5.6,2.6-5.6,5.9v0.1c0,3.2,2.4,5.9,5.7,5.9
		C300.1,47.8,302.4,45.2,302.4,41.9 M286.8,41.9L286.8,41.9c0-5.4,4.2-9.8,10-9.8c5.8,0,10,4.3,10,9.7v0.1c0,5.3-4.2,9.7-10,9.7
		C290.9,51.6,286.8,47.3,286.8,41.9"/>
	<polygon class="st1" points="312,32.5 316.1,32.5 316.1,47.5 325.5,47.5 325.5,51.3 312,51.3 	"/>
	<polygon class="st1" points="272.2,58.1 272.2,61.3 268.1,61.3 268.1,58.1 267.3,58.1 267.3,65.3 268.1,65.3 268.1,62.1 
		272.2,62.1 272.2,65.3 273.1,65.3 273.1,58.1 	"/>
	<path class="st1" d="M282.3,61.7L282.3,61.7c0-1.7-1.2-3-2.8-3c-1.6,0-2.8,1.3-2.8,2.9v0c0,1.6,1.2,3,2.8,3S282.3,63.3,282.3,61.7
		 M275.8,61.7L275.8,61.7c0-2,1.5-3.7,3.7-3.7c2.2,0,3.7,1.7,3.7,3.7v0c0,2-1.5,3.7-3.7,3.7C277.2,65.4,275.8,63.7,275.8,61.7"/>
	<polygon class="st1" points="285.1,58.1 285.1,58.8 287.6,58.8 287.6,65.3 288.4,65.3 288.4,58.8 290.8,58.8 290.8,58.1 	"/>
	<polygon class="st1" points="294.2,58.1 294.2,65.3 299.4,65.3 299.4,64.5 295,64.5 295,62 298.9,62 298.9,61.3 295,61.3 295,58.8 
		299.4,58.8 299.4,58.1 	"/>
	<polygon class="st1" points="303.2,58.1 303.2,65.3 308.1,65.3 308.1,64.5 304,64.5 304,58.1 	"/>
	<polygon class="st1" points="311.5,58.1 311.5,65.3 316.7,65.3 316.7,64.5 312.3,64.5 312.3,62 316.2,62 316.2,61.3 312.3,61.3 
		312.3,58.8 316.7,58.8 316.7,58.1 	"/>
	<path class="st1" d="M320.1,64.2l0.5-0.6c0.8,0.7,1.5,1,2.5,1c1,0,1.6-0.5,1.6-1.2v0c0-0.7-0.4-1-1.9-1.4c-1.7-0.4-2.4-0.9-2.4-2.1
		v0c0-1.1,1-2,2.4-2c1,0,1.8,0.3,2.5,0.9l-0.5,0.6c-0.7-0.5-1.3-0.8-2.1-0.8c-0.9,0-1.5,0.5-1.5,1.2v0c0,0.7,0.4,1.1,2,1.4
		c1.6,0.3,2.3,0.9,2.3,2v0c0,1.2-1,2-2.5,2C321.9,65.4,321,65,320.1,64.2"/>
</g>
<g id="Capa_4">
	<path class="st1" d="M587.2,34.7c0.3,0,0.4-0.1,0.4-0.3v0c0-0.2-0.2-0.3-0.4-0.3h-0.5v0.7H587.2z M586.2,33.6h1.1
		c0.3,0,0.6,0.1,0.7,0.3c0.1,0.1,0.2,0.3,0.2,0.5v0c0,0.4-0.2,0.6-0.5,0.7l0.6,0.9h-0.6l-0.5-0.8h0h-0.4v0.8h-0.5V33.6z M589.1,34.8
		L589.1,34.8c0-1.1-0.9-2-2-2c-1.1,0-2,0.9-2,2v0c0,1.1,0.8,2,2,2C588.2,36.8,589.1,35.9,589.1,34.8 M584.9,34.8L584.9,34.8
		c0-1.2,1-2.2,2.2-2.2c1.3,0,2.2,1,2.2,2.2v0c0,1.2-1,2.2-2.2,2.2C585.9,37,584.9,36,584.9,34.8"/>
	<polygon class="st1" points="431.6,32.5 436,32.5 439.8,45.3 443.9,32.4 447.4,32.4 451.6,45.3 455.4,32.5 459.6,32.5 453.3,51.5 
		449.8,51.5 445.6,39.1 441.5,51.5 437.9,51.5 	"/>
	<polygon class="st1" points="467.2,43.9 460.1,32.5 464.8,32.5 469.2,40.1 473.7,32.5 478.3,32.5 471.2,43.8 471.2,51.4 
		467.2,51.4 	"/>
	<polygon class="st1" points="480.7,32.5 484.4,32.5 493.1,44.1 493.1,32.5 497.1,32.5 497.1,51.4 493.6,51.4 484.7,39.4 
		484.7,51.4 480.7,51.4 	"/>
	<path class="st1" d="M508.6,47.6c3.3,0,5.6-2.3,5.6-5.6v-0.1c0-3.3-2.2-5.7-5.6-5.7h-3.1v11.4H508.6z M501.4,32.5h7.2
		c5.8,0,9.8,4.1,9.8,9.4v0.1c0,5.3-4,9.4-9.8,9.4h-7.2V32.5z"/>
	<polygon class="st1" points="521.8,32.5 525.9,32.5 525.9,40 533.4,40 533.4,32.5 537.4,32.5 537.4,51.4 533.4,51.4 533.4,43.8 
		525.9,43.8 525.9,51.4 521.8,51.4 	"/>
	<path class="st1" d="M552.3,43.5l-2.4-6.1l-2.5,6.1H552.3z M548,32.3h3.7l7.9,19h-4.2l-1.7-4.2H546l-1.7,4.2h-4.1L548,32.3z"/>
	<polygon class="st1" points="562.4,32.5 566.8,32.5 571.6,40.5 576.5,32.5 580.8,32.5 580.8,51.4 576.8,51.4 576.8,39 571.6,47.1 
		571.5,47.1 566.4,39.1 566.4,51.4 562.4,51.4 	"/>
	<path class="st1" d="M418.5,40.5c-0.7,0-0.9,0.4-1.7,1.6c-0.6,0.9-4.8,7.6-4.8,7.6c-0.3,0.5-0.9,0.9-1.6,0.9
		c-0.7,0-1.2-0.4-1.5-0.8c-0.1-0.1-0.1-0.1-0.1-0.2c0-0.1,0.1-0.1,0.1-0.2c0-0.1,5.4-8.5,5.4-8.5c0.9-1.4,1.9-1.7,2.7-1.7
		c1.1,0,1.8,0.6,1.8,1C418.8,40.4,418.7,40.5,418.5,40.5 M405.9,50.6c-0.7,0-1.3-0.4-1.6-0.9c0,0-4.2-6.7-4.8-7.6
		c-0.8-1.2-1-1.6-1.7-1.6c-0.3,0-0.3-0.1-0.3-0.3c0-0.4,0.6-1,1.8-1c0.9,0,1.9,0.3,2.7,1.7c0,0,2.1,3.3,3.7,5.8
		c0.1,0.1,0.1,0.1,0.2,0.1c0.1,0,0.2-0.1,0.2-0.1c0.8-1.2,4.4-7,4.9-7.7c0.9-1.4,2.1-1.9,3.1-1.9c1.4,0,2,0.8,2,1.1
		c0,0.1-0.1,0.2-0.3,0.2c-1,0-1.7,0.6-2.2,1.4c-0.5,0.8-5.8,9.3-6.2,9.9C407.1,50.2,406.5,50.6,405.9,50.6 M402.2,37.1
		c1.1,0,2.2,0.5,3.1,1.9c0.5,0.7,2,3.2,2.1,3.2c0,0,0,0.1,0,0.1c0,0.1,0,0.1,0,0.1c0,0-1.3,2.1-1.4,2.2c0,0.1-0.1,0.1-0.2,0.1
		c-0.1,0-0.1,0-0.2-0.1c0,0-2.5-4-3-4.8c-0.5-0.8-1.1-1.4-2.2-1.4c-0.2,0-0.3-0.1-0.3-0.2C400.2,37.8,400.7,37.1,402.2,37.1
		 M405.7,34.9c0.3,0,0.4-0.1,0.5-0.3c0.3-0.7,1-1.2,1.9-1.2c0.9,0,1.6,0.5,1.9,1.2c0.1,0.2,0.2,0.3,0.5,0.3c1.1,0,2,0.8,2,1.3
		c0,0.2-0.2,0.3-0.4,0.4c-0.8,0.1-1.3,0.5-2,1.5c-0.7,1.2-1.8,2.8-1.8,2.9c-0.1,0.1-0.1,0.1-0.2,0.1c-0.1,0-0.1,0-0.2-0.1
		c-0.1-0.1-1.1-1.7-1.8-2.9c-0.7-1-1.1-1.4-2-1.5c-0.3,0-0.4-0.2-0.4-0.4C403.7,35.7,404.6,34.9,405.7,34.9 M392.5,56.2h31.3V27.8
		h-31.3V56.2z"/>
</g>
</svg>
